<svg width="432" height="432" viewBox="0 0 432 432" fill="none" xmlns="http://www.w3.org/2000/svg">
<path d="M216 20C324.248 20 412 107.752 412 216C412 324.248 324.248 412 216 412C107.752 412 20 324.248 20 216C20 107.752 107.752 20 216 20Z" fill="black"/>
<path d="M216 20C324.248 20 412 107.752 412 216C412 324.248 324.248 412 216 412C107.752 412 20 324.248 20 216C20 107.752 107.752 20 216 20Z" stroke="black" stroke-width="40"/>
<path d="M174 151C174 127.804 192.804 109 216 109C239.196 109 258 127.804 258 151C258 174.196 239.196 193 216 193C192.804 193 174 174.196 174 151Z" fill="#003525"/>
<path d="M199.667 156.833C199.667 156.833 203.167 156.833 207.833 165C207.833 165 220.804 143.611 232.333 139.333" stroke="#B7E5BA" stroke-width="5" stroke-linecap="round" stroke-linejoin="round"/>
<path d="M107.335 239C106.724 239 106.386 238.662 106.386 238.051V221.749C106.386 221.138 106.724 220.8 107.335 220.8H113.575C117.358 220.8 119.854 223.062 119.854 226.598C119.854 230.121 117.358 232.409 113.575 232.409H109.376V238.051C109.376 238.662 109.051 239 108.44 239H107.335ZM113.302 229.796C115.434 229.796 116.799 228.561 116.799 226.598C116.799 224.635 115.46 223.4 113.315 223.4H109.376V229.796H113.302ZM126.981 239.156C124.121 239.156 121.716 237.557 121.716 233.098V226.65C121.716 226.026 122.054 225.701 122.665 225.701H123.588C124.199 225.701 124.537 226.026 124.537 226.65V232.89C124.537 235.425 125.642 236.738 127.618 236.738C129.906 236.738 131.05 235.269 131.05 232.708V226.65C131.05 226.026 131.388 225.701 131.999 225.701H132.922C133.533 225.701 133.871 226.026 133.871 226.65V238.051C133.871 238.662 133.533 239 132.922 239H132.285C131.7 239 131.362 238.714 131.258 238.142L131.115 237.258C130.322 238.285 129.087 239.156 126.981 239.156ZM137.623 239C137.012 239 136.674 238.662 136.674 238.051V226.65C136.674 226.026 137.012 225.701 137.623 225.701H138.273C138.845 225.701 139.183 225.974 139.287 226.546L139.43 227.404C140.119 226.442 141.328 225.545 143.317 225.545C145.085 225.545 146.645 226.273 147.438 227.95C148.296 226.533 149.778 225.545 152.001 225.545C154.757 225.545 156.993 227.066 156.993 231.083V238.051C156.993 238.662 156.655 239 156.044 239H155.134C154.51 239 154.185 238.662 154.185 238.051V231.239C154.185 229.107 153.21 227.963 151.403 227.963C149.466 227.963 148.244 229.328 148.244 231.551V238.051C148.244 238.662 147.906 239 147.295 239H146.385C145.761 239 145.436 238.662 145.436 238.051V231.239C145.436 229.107 144.461 227.963 142.615 227.963C140.691 227.963 139.495 229.432 139.495 231.616V238.051C139.495 238.662 139.157 239 138.546 239H137.623ZM160.627 244.2C160.016 244.2 159.678 243.862 159.678 243.251V226.65C159.678 226.026 160.016 225.701 160.627 225.701H161.264C161.836 225.701 162.187 225.987 162.278 226.559L162.447 227.703C163.331 226.507 164.709 225.545 166.815 225.545C170.455 225.545 173.107 228.08 173.107 232.357C173.107 236.452 170.442 239.156 166.828 239.156C164.748 239.156 163.318 238.311 162.499 237.115V243.251C162.499 243.862 162.161 244.2 161.55 244.2H160.627ZM166.347 236.764C168.687 236.764 170.234 234.983 170.234 232.344C170.234 229.705 168.687 227.924 166.347 227.924C164.02 227.924 162.46 229.705 162.46 232.305C162.46 234.97 164.02 236.764 166.347 236.764ZM176.293 239C175.682 239 175.344 238.662 175.344 238.051V226.65C175.344 226.026 175.682 225.701 176.293 225.701H177.216C177.827 225.701 178.165 226.026 178.165 226.65V238.051C178.165 238.662 177.827 239 177.216 239H176.293ZM176.748 223.738C175.825 223.738 175.11 223.049 175.11 222.113C175.11 221.177 175.825 220.475 176.748 220.475C177.684 220.475 178.399 221.177 178.399 222.113C178.399 223.049 177.684 223.738 176.748 223.738ZM181.93 239C181.319 239 180.981 238.662 180.981 238.051V226.65C180.981 226.026 181.319 225.701 181.93 225.701H182.567C183.152 225.701 183.49 225.987 183.594 226.559L183.737 227.43C184.543 226.416 185.856 225.545 188.001 225.545C190.952 225.545 193.357 227.131 193.357 231.603V238.051C193.357 238.662 193.032 239 192.408 239H191.498C190.887 239 190.549 238.662 190.549 238.051V231.811C190.549 229.276 189.444 227.963 187.377 227.963C185.024 227.963 183.802 229.419 183.802 231.993V238.051C183.802 238.662 183.464 239 182.853 239H181.93ZM202.057 244.356C198.937 244.356 196.688 243.069 196.012 240.82C195.804 240.144 196.233 239.741 196.857 239.741H197.871C198.404 239.741 198.651 240.014 198.963 240.482C199.535 241.496 200.666 242.068 202.265 242.068C204.748 242.068 206.113 240.885 206.113 238.363V236.946C205.216 238.129 203.838 239.052 201.81 239.052C198.118 239.052 195.466 236.504 195.466 232.305C195.466 228.301 198.144 225.545 201.771 225.545C203.825 225.545 205.268 226.364 206.126 227.625L206.295 226.546C206.386 225.987 206.737 225.701 207.309 225.701H207.946C208.557 225.701 208.895 226.026 208.895 226.65V238.467C208.895 242.211 206.659 244.356 202.057 244.356ZM202.239 236.699C204.553 236.699 206.113 234.918 206.113 232.344C206.113 229.718 204.553 227.924 202.239 227.924C199.899 227.924 198.339 229.705 198.339 232.305C198.339 234.918 199.899 236.699 202.239 236.699ZM224.007 239.156C219.925 239.156 217.403 236.53 217.403 232.37C217.403 228.262 220.055 225.545 224.085 225.545C227.088 225.545 229.116 226.975 229.922 229.354C230.143 230.017 229.779 230.446 229.103 230.446H228.076C227.543 230.446 227.27 230.16 226.984 229.679C226.412 228.561 225.463 227.924 224.046 227.924C221.771 227.924 220.276 229.744 220.276 232.37C220.276 234.983 221.732 236.764 224.046 236.764C225.476 236.764 226.438 236.101 226.984 234.996C227.27 234.489 227.543 234.229 228.128 234.229H229.116C229.779 234.229 230.156 234.606 229.948 235.23C229.155 237.661 227.023 239.156 224.007 239.156ZM238.459 239.156C234.416 239.156 231.673 236.413 231.673 232.344C231.673 228.275 234.416 225.545 238.459 225.545C242.502 225.545 245.245 228.275 245.245 232.344C245.245 236.413 242.502 239.156 238.459 239.156ZM238.459 236.764C240.825 236.764 242.372 234.931 242.372 232.344C242.372 229.77 240.825 227.924 238.459 227.924C236.093 227.924 234.546 229.77 234.546 232.344C234.546 234.931 236.093 236.764 238.459 236.764ZM248.428 239C247.817 239 247.479 238.662 247.479 238.051V226.65C247.479 226.026 247.817 225.701 248.428 225.701H249.078C249.65 225.701 249.988 225.974 250.092 226.546L250.235 227.404C250.924 226.442 252.133 225.545 254.122 225.545C255.89 225.545 257.45 226.273 258.243 227.95C259.101 226.533 260.583 225.545 262.806 225.545C265.562 225.545 267.798 227.066 267.798 231.083V238.051C267.798 238.662 267.46 239 266.849 239H265.939C265.315 239 264.99 238.662 264.99 238.051V231.239C264.99 229.107 264.015 227.963 262.208 227.963C260.271 227.963 259.049 229.328 259.049 231.551V238.051C259.049 238.662 258.711 239 258.1 239H257.19C256.566 239 256.241 238.662 256.241 238.051V231.239C256.241 229.107 255.266 227.963 253.42 227.963C251.496 227.963 250.3 229.432 250.3 231.616V238.051C250.3 238.662 249.962 239 249.351 239H248.428ZM271.432 244.2C270.821 244.2 270.483 243.862 270.483 243.251V226.65C270.483 226.026 270.821 225.701 271.432 225.701H272.069C272.641 225.701 272.992 225.987 273.083 226.559L273.252 227.703C274.136 226.507 275.514 225.545 277.62 225.545C281.26 225.545 283.912 228.08 283.912 232.357C283.912 236.452 281.247 239.156 277.633 239.156C275.553 239.156 274.123 238.311 273.304 237.115V243.251C273.304 243.862 272.966 244.2 272.355 244.2H271.432ZM277.152 236.764C279.492 236.764 281.039 234.983 281.039 232.344C281.039 229.705 279.492 227.924 277.152 227.924C274.825 227.924 273.265 229.705 273.265 232.305C273.265 234.97 274.825 236.764 277.152 236.764ZM287.098 239C286.487 239 286.149 238.662 286.149 238.051V221.749C286.149 221.138 286.487 220.8 287.098 220.8H288.021C288.632 220.8 288.97 221.138 288.97 221.749V238.051C288.97 238.662 288.632 239 288.021 239H287.098ZM298.026 239.156C293.84 239.156 291.214 236.452 291.214 232.357C291.214 228.275 293.84 225.545 297.766 225.545C301.146 225.545 304.201 227.573 304.214 231.954C304.214 232.617 303.902 232.955 303.265 232.955H294.152V233.124C294.152 235.36 295.66 236.868 297.883 236.868C299.287 236.868 300.353 236.283 300.951 235.243C301.276 234.814 301.562 234.541 302.095 234.541H303.044C303.655 234.541 304.045 234.892 303.811 235.516C303.057 237.596 300.938 239.156 298.026 239.156ZM301.341 230.875C301.12 228.912 299.768 227.794 297.805 227.794C296.011 227.794 294.464 228.951 294.23 230.875H301.341ZM310.886 239C308.338 239 307.272 237.817 307.272 235.373V228.158H305.907C305.296 228.158 304.958 227.82 304.958 227.209V226.65C304.958 226.026 305.296 225.701 305.907 225.701H307.272V222.906C307.272 222.295 307.597 221.957 308.221 221.957H309.131C309.742 221.957 310.08 222.295 310.08 222.906V225.701H312.55C313.174 225.701 313.499 226.026 313.499 226.65V227.209C313.499 227.82 313.174 228.158 312.55 228.158H310.08V235.1C310.08 236.14 310.47 236.543 311.523 236.543H312.55C313.174 236.543 313.499 236.868 313.499 237.492V238.051C313.499 238.662 313.174 239 312.55 239H310.886ZM321.436 239.156C317.25 239.156 314.624 236.452 314.624 232.357C314.624 228.275 317.25 225.545 321.176 225.545C324.556 225.545 327.611 227.573 327.624 231.954C327.624 232.617 327.312 232.955 326.675 232.955H317.562V233.124C317.562 235.36 319.07 236.868 321.293 236.868C322.697 236.868 323.763 236.283 324.361 235.243C324.686 234.814 324.972 234.541 325.505 234.541H326.454C327.065 234.541 327.455 234.892 327.221 235.516C326.467 237.596 324.348 239.156 321.436 239.156ZM324.751 230.875C324.53 228.912 323.178 227.794 321.215 227.794C319.421 227.794 317.874 228.951 317.64 230.875H324.751ZM330.541 239.156C329.514 239.156 328.747 238.428 328.747 237.388C328.747 236.335 329.514 235.62 330.541 235.62C331.581 235.62 332.348 236.335 332.348 237.388C332.348 238.428 331.581 239.156 330.541 239.156Z" fill="white"/>
<path d="M82.5078 281.156C77.2818 281.156 73.6678 277.23 73.6678 271.9C73.6678 266.57 77.2818 262.644 82.5078 262.644C87.7338 262.644 91.3348 266.57 91.3348 271.9C91.3348 277.23 87.7338 281.156 82.5078 281.156ZM82.5078 278.53C85.9658 278.53 88.2798 275.826 88.2798 271.9C88.2798 267.974 85.9658 265.27 82.5078 265.27C79.0368 265.27 76.7228 267.974 76.7228 271.9C76.7228 275.826 79.0368 278.53 82.5078 278.53ZM94.5736 286.2C93.9626 286.2 93.6246 285.862 93.6246 285.251V268.65C93.6246 268.026 93.9626 267.701 94.5736 267.701H95.2106C95.7826 267.701 96.1336 267.987 96.2246 268.559L96.3936 269.703C97.2776 268.507 98.6556 267.545 100.762 267.545C104.402 267.545 107.054 270.08 107.054 274.357C107.054 278.452 104.389 281.156 100.775 281.156C98.6946 281.156 97.2646 280.311 96.4456 279.115V285.251C96.4456 285.862 96.1076 286.2 95.4966 286.2H94.5736ZM100.294 278.764C102.634 278.764 104.181 276.983 104.181 274.344C104.181 271.705 102.634 269.924 100.294 269.924C97.9666 269.924 96.4066 271.705 96.4066 274.305C96.4066 276.97 97.9666 278.764 100.294 278.764ZM115.556 281.156C111.37 281.156 108.744 278.452 108.744 274.357C108.744 270.275 111.37 267.545 115.296 267.545C118.676 267.545 121.731 269.573 121.744 273.954C121.744 274.617 121.432 274.955 120.795 274.955H111.682V275.124C111.682 277.36 113.19 278.868 115.413 278.868C116.817 278.868 117.883 278.283 118.481 277.243C118.806 276.814 119.092 276.541 119.625 276.541H120.574C121.185 276.541 121.575 276.892 121.341 277.516C120.587 279.596 118.468 281.156 115.556 281.156ZM118.871 272.875C118.65 270.912 117.298 269.794 115.335 269.794C113.541 269.794 111.994 270.951 111.76 272.875H118.871ZM124.941 281C124.33 281 123.992 280.662 123.992 280.051V268.65C123.992 268.026 124.33 267.701 124.941 267.701H125.578C126.163 267.701 126.501 267.987 126.605 268.559L126.748 269.43C127.554 268.416 128.867 267.545 131.012 267.545C133.963 267.545 136.368 269.131 136.368 273.603V280.051C136.368 280.662 136.043 281 135.419 281H134.509C133.898 281 133.56 280.662 133.56 280.051V273.811C133.56 271.276 132.455 269.963 130.388 269.963C128.035 269.963 126.813 271.419 126.813 273.993V280.051C126.813 280.662 126.475 281 125.864 281H124.941ZM149.922 281C147.374 281 146.308 279.817 146.308 277.373V270.158H144.943C144.332 270.158 143.994 269.82 143.994 269.209V268.65C143.994 268.026 144.332 267.701 144.943 267.701H146.308V264.906C146.308 264.295 146.633 263.957 147.257 263.957H148.167C148.778 263.957 149.116 264.295 149.116 264.906V267.701H151.586C152.21 267.701 152.535 268.026 152.535 268.65V269.209C152.535 269.82 152.21 270.158 151.586 270.158H149.116V277.1C149.116 278.14 149.506 278.543 150.559 278.543H151.586C152.21 278.543 152.535 278.868 152.535 279.492V280.051C152.535 280.662 152.21 281 151.586 281H149.922ZM155.486 281C154.875 281 154.537 280.662 154.537 280.051V263.749C154.537 263.138 154.875 262.8 155.486 262.8H156.409C157.02 262.8 157.358 263.138 157.358 263.749V269.365C158.151 268.403 159.451 267.545 161.544 267.545C164.521 267.545 166.913 269.144 166.913 273.603V280.051C166.913 280.662 166.588 281 165.964 281H165.054C164.443 281 164.105 280.662 164.105 280.051V273.824C164.105 271.315 163.013 269.963 160.933 269.963C158.58 269.963 157.358 271.458 157.358 274.006V280.051C157.358 280.662 157.02 281 156.409 281H155.486ZM175.833 281.156C171.647 281.156 169.021 278.452 169.021 274.357C169.021 270.275 171.647 267.545 175.573 267.545C178.953 267.545 182.008 269.573 182.021 273.954C182.021 274.617 181.709 274.955 181.072 274.955H171.959V275.124C171.959 277.36 173.467 278.868 175.69 278.868C177.094 278.868 178.16 278.283 178.758 277.243C179.083 276.814 179.369 276.541 179.902 276.541H180.851C181.462 276.541 181.852 276.892 181.618 277.516C180.864 279.596 178.745 281.156 175.833 281.156ZM179.148 272.875C178.927 270.912 177.575 269.794 175.612 269.794C173.818 269.794 172.271 270.951 172.037 272.875H179.148ZM191.62 281C191.009 281 190.671 280.662 190.671 280.051V263.749C190.671 263.138 191.009 262.8 191.62 262.8H193.726C194.272 262.8 194.623 263.021 194.831 263.541L200.382 277.139L205.803 263.554C205.998 263.06 206.362 262.8 206.908 262.8H208.923C209.547 262.8 209.872 263.138 209.872 263.749V280.051C209.872 280.662 209.547 281 208.923 281H207.935C207.324 281 206.986 280.662 206.986 280.051V267.61L201.838 280.22C201.617 280.766 201.279 281 200.733 281H199.823C199.277 281 198.926 280.766 198.705 280.22L193.557 267.61V280.051C193.557 280.662 193.232 281 192.608 281H191.62ZM219.048 281.156C215.005 281.156 212.262 278.413 212.262 274.344C212.262 270.275 215.005 267.545 219.048 267.545C223.091 267.545 225.834 270.275 225.834 274.344C225.834 278.413 223.091 281.156 219.048 281.156ZM219.048 278.764C221.414 278.764 222.961 276.931 222.961 274.344C222.961 271.77 221.414 269.924 219.048 269.924C216.682 269.924 215.135 271.77 215.135 274.344C215.135 276.931 216.682 278.764 219.048 278.764ZM229.017 281C228.406 281 228.068 280.662 228.068 280.051V268.65C228.068 268.026 228.406 267.701 229.017 267.701H229.667C230.239 267.701 230.577 267.974 230.681 268.546L230.824 269.404C231.513 268.442 232.722 267.545 234.711 267.545C236.479 267.545 238.039 268.273 238.832 269.95C239.69 268.533 241.172 267.545 243.395 267.545C246.151 267.545 248.387 269.066 248.387 273.083V280.051C248.387 280.662 248.049 281 247.438 281H246.528C245.904 281 245.579 280.662 245.579 280.051V273.239C245.579 271.107 244.604 269.963 242.797 269.963C240.86 269.963 239.638 271.328 239.638 273.551V280.051C239.638 280.662 239.3 281 238.689 281H237.779C237.155 281 236.83 280.662 236.83 280.051V273.239C236.83 271.107 235.855 269.963 234.009 269.963C232.085 269.963 230.889 271.432 230.889 273.616V280.051C230.889 280.662 230.551 281 229.94 281H229.017ZM257.104 281.156C253.022 281.156 250.5 278.53 250.5 274.37C250.5 270.262 253.152 267.545 257.182 267.545C260.185 267.545 262.213 268.975 263.019 271.354C263.24 272.017 262.876 272.446 262.2 272.446H261.173C260.64 272.446 260.367 272.16 260.081 271.679C259.509 270.561 258.56 269.924 257.143 269.924C254.868 269.924 253.373 271.744 253.373 274.37C253.373 276.983 254.829 278.764 257.143 278.764C258.573 278.764 259.535 278.101 260.081 276.996C260.367 276.489 260.64 276.229 261.225 276.229H262.213C262.876 276.229 263.253 276.606 263.045 277.23C262.252 279.661 260.12 281.156 257.104 281.156ZM271.555 281.156C267.512 281.156 264.769 278.413 264.769 274.344C264.769 270.275 267.512 267.545 271.555 267.545C275.598 267.545 278.341 270.275 278.341 274.344C278.341 278.413 275.598 281.156 271.555 281.156ZM271.555 278.764C273.921 278.764 275.468 276.931 275.468 274.344C275.468 271.77 273.921 269.924 271.555 269.924C269.189 269.924 267.642 271.77 267.642 274.344C267.642 276.931 269.189 278.764 271.555 278.764ZM280.032 281C279.408 281 279.083 280.662 279.083 280.051V279.687C279.083 279.193 279.213 278.842 279.525 278.491L286.675 270.158H280.188C279.577 270.158 279.239 269.82 279.239 269.209V268.65C279.239 268.026 279.577 267.701 280.188 267.701H289.509C290.12 267.701 290.458 268.026 290.458 268.65V269.014C290.458 269.495 290.328 269.846 290.016 270.197L282.84 278.543H289.665C290.289 278.543 290.614 278.868 290.614 279.492V280.051C290.614 280.662 290.289 281 289.665 281H280.032ZM292.963 286.2C292.352 286.2 292.014 285.862 292.014 285.251V284.692C292.014 284.068 292.352 283.743 292.963 283.743H293.977C295.082 283.743 295.329 283.457 295.732 282.365L296.239 281.065L291.533 268.793C291.273 268.117 291.598 267.701 292.3 267.701H293.34C293.886 267.701 294.198 267.922 294.393 268.455L297.786 277.802L301.153 268.455C301.335 267.935 301.647 267.701 302.206 267.701H303.207C303.909 267.701 304.234 268.117 303.974 268.793L298.397 283.106C297.552 285.277 296.98 286.2 295.017 286.2H292.963ZM311.84 281C311.125 281 310.826 280.571 311.073 279.908L317.157 263.658C317.378 263.06 317.729 262.8 318.275 262.8H320.238C320.784 262.8 321.135 263.06 321.356 263.658L327.44 279.908C327.674 280.545 327.375 281 326.673 281H325.425C324.879 281 324.541 280.753 324.346 280.233L322.929 276.502H315.454L314.05 280.233C313.855 280.753 313.517 281 312.971 281H311.84ZM316.286 273.954H322.084L319.172 266.024L316.286 273.954ZM330.224 286.2C329.613 286.2 329.275 285.862 329.275 285.251V268.65C329.275 268.026 329.613 267.701 330.224 267.701H330.861C331.433 267.701 331.784 267.987 331.875 268.559L332.044 269.703C332.928 268.507 334.306 267.545 336.412 267.545C340.052 267.545 342.704 270.08 342.704 274.357C342.704 278.452 340.039 281.156 336.425 281.156C334.345 281.156 332.915 280.311 332.096 279.115V285.251C332.096 285.862 331.758 286.2 331.147 286.2H330.224ZM335.944 278.764C338.284 278.764 339.831 276.983 339.831 274.344C339.831 271.705 338.284 269.924 335.944 269.924C333.617 269.924 332.057 271.705 332.057 274.305C332.057 276.97 333.617 278.764 335.944 278.764ZM345.89 286.2C345.279 286.2 344.941 285.862 344.941 285.251V268.65C344.941 268.026 345.279 267.701 345.89 267.701H346.527C347.099 267.701 347.45 267.987 347.541 268.559L347.71 269.703C348.594 268.507 349.972 267.545 352.078 267.545C355.718 267.545 358.37 270.08 358.37 274.357C358.37 278.452 355.705 281.156 352.091 281.156C350.011 281.156 348.581 280.311 347.762 279.115V285.251C347.762 285.862 347.424 286.2 346.813 286.2H345.89ZM351.61 278.764C353.95 278.764 355.497 276.983 355.497 274.344C355.497 271.705 353.95 269.924 351.61 269.924C349.283 269.924 347.723 271.705 347.723 274.305C347.723 276.97 349.283 278.764 351.61 278.764ZM86.7628 315C84.2148 315 83.1488 313.817 83.1488 311.373V304.158H81.7838C81.1728 304.158 80.8348 303.82 80.8348 303.209V302.65C80.8348 302.026 81.1728 301.701 81.7838 301.701H83.1488V298.906C83.1488 298.295 83.4738 297.957 84.0978 297.957H85.0078C85.6188 297.957 85.9568 298.295 85.9568 298.906V301.701H88.4268C89.0508 301.701 89.3758 302.026 89.3758 302.65V303.209C89.3758 303.82 89.0508 304.158 88.4268 304.158H85.9568V311.1C85.9568 312.14 86.3468 312.543 87.3998 312.543H88.4268C89.0508 312.543 89.3758 312.868 89.3758 313.492V314.051C89.3758 314.662 89.0508 315 88.4268 315H86.7628ZM97.2869 315.156C93.2439 315.156 90.5009 312.413 90.5009 308.344C90.5009 304.275 93.2439 301.545 97.2869 301.545C101.33 301.545 104.073 304.275 104.073 308.344C104.073 312.413 101.33 315.156 97.2869 315.156ZM97.2869 312.764C99.6529 312.764 101.2 310.931 101.2 308.344C101.2 305.77 99.6529 303.924 97.2869 303.924C94.9209 303.924 93.3739 305.77 93.3739 308.344C93.3739 310.931 94.9209 312.764 97.2869 312.764ZM113.528 315C112.917 315 112.579 314.662 112.579 314.051V297.749C112.579 297.138 112.917 296.8 113.528 296.8H114.451C115.062 296.8 115.4 297.138 115.4 297.749V314.051C115.4 314.662 115.062 315 114.451 315H113.528ZM124.429 315.156C120.386 315.156 117.643 312.413 117.643 308.344C117.643 304.275 120.386 301.545 124.429 301.545C128.472 301.545 131.215 304.275 131.215 308.344C131.215 312.413 128.472 315.156 124.429 315.156ZM124.429 312.764C126.795 312.764 128.342 310.931 128.342 308.344C128.342 305.77 126.795 303.924 124.429 303.924C122.063 303.924 120.516 305.77 120.516 308.344C120.516 310.931 122.063 312.764 124.429 312.764ZM139.469 320.356C136.349 320.356 134.1 319.069 133.424 316.82C133.216 316.144 133.645 315.741 134.269 315.741H135.283C135.816 315.741 136.063 316.014 136.375 316.482C136.947 317.496 138.078 318.068 139.677 318.068C142.16 318.068 143.525 316.885 143.525 314.363V312.946C142.628 314.129 141.25 315.052 139.222 315.052C135.53 315.052 132.878 312.504 132.878 308.305C132.878 304.301 135.556 301.545 139.183 301.545C141.237 301.545 142.68 302.364 143.538 303.625L143.707 302.546C143.798 301.987 144.149 301.701 144.721 301.701H145.358C145.969 301.701 146.307 302.026 146.307 302.65V314.467C146.307 318.211 144.071 320.356 139.469 320.356ZM139.651 312.699C141.965 312.699 143.525 310.918 143.525 308.344C143.525 305.718 141.965 303.924 139.651 303.924C137.311 303.924 135.751 305.705 135.751 308.305C135.751 310.918 137.311 312.699 139.651 312.699ZM155.79 320.2C155.179 320.2 154.841 319.862 154.841 319.251V318.692C154.841 318.068 155.179 317.743 155.79 317.743H156.804C157.909 317.743 158.156 317.457 158.559 316.365L159.066 315.065L154.36 302.793C154.1 302.117 154.425 301.701 155.127 301.701H156.167C156.713 301.701 157.025 301.922 157.22 302.455L160.613 311.802L163.98 302.455C164.162 301.935 164.474 301.701 165.033 301.701H166.034C166.736 301.701 167.061 302.117 166.801 302.793L161.224 317.106C160.379 319.277 159.807 320.2 157.844 320.2H155.79ZM174.195 315.156C170.152 315.156 167.409 312.413 167.409 308.344C167.409 304.275 170.152 301.545 174.195 301.545C178.238 301.545 180.981 304.275 180.981 308.344C180.981 312.413 178.238 315.156 174.195 315.156ZM174.195 312.764C176.561 312.764 178.108 310.931 178.108 308.344C178.108 305.77 176.561 303.924 174.195 303.924C171.829 303.924 170.282 305.77 170.282 308.344C170.282 310.931 171.829 312.764 174.195 312.764ZM188.35 315.156C185.49 315.156 183.085 313.557 183.085 309.098V302.65C183.085 302.026 183.423 301.701 184.034 301.701H184.957C185.568 301.701 185.906 302.026 185.906 302.65V308.89C185.906 311.425 187.011 312.738 188.987 312.738C191.275 312.738 192.419 311.269 192.419 308.708V302.65C192.419 302.026 192.757 301.701 193.368 301.701H194.291C194.902 301.701 195.24 302.026 195.24 302.65V314.051C195.24 314.662 194.902 315 194.291 315H193.654C193.069 315 192.731 314.714 192.627 314.142L192.484 313.258C191.691 314.285 190.456 315.156 188.35 315.156ZM198.993 315C198.382 315 198.044 314.662 198.044 314.051V302.65C198.044 302.026 198.382 301.701 198.993 301.701H199.617C200.202 301.701 200.553 301.974 200.644 302.559L200.813 303.69C201.437 302.598 202.646 301.727 204.375 301.701H204.427C205.103 301.675 205.415 302.026 205.415 302.65V303.378C205.415 303.989 205.077 304.327 204.466 304.327H204.167C201.658 304.327 200.865 306.264 200.865 308.331V314.051C200.865 314.662 200.527 315 199.916 315H198.993ZM214.354 315C213.743 315 213.405 314.662 213.405 314.051V302.65C213.405 302.026 213.743 301.701 214.354 301.701H215.004C215.576 301.701 215.914 301.974 216.018 302.546L216.161 303.404C216.85 302.442 218.059 301.545 220.048 301.545C221.816 301.545 223.376 302.273 224.169 303.95C225.027 302.533 226.509 301.545 228.732 301.545C231.488 301.545 233.724 303.066 233.724 307.083V314.051C233.724 314.662 233.386 315 232.775 315H231.865C231.241 315 230.916 314.662 230.916 314.051V307.239C230.916 305.107 229.941 303.963 228.134 303.963C226.197 303.963 224.975 305.328 224.975 307.551V314.051C224.975 314.662 224.637 315 224.026 315H223.116C222.492 315 222.167 314.662 222.167 314.051V307.239C222.167 305.107 221.192 303.963 219.346 303.963C217.422 303.963 216.226 305.432 216.226 307.616V314.051C216.226 314.662 215.888 315 215.277 315H214.354ZM237.358 315C236.747 315 236.409 314.662 236.409 314.051V302.65C236.409 302.026 236.747 301.701 237.358 301.701H238.281C238.892 301.701 239.23 302.026 239.23 302.65V314.051C239.23 314.662 238.892 315 238.281 315H237.358ZM237.813 299.738C236.89 299.738 236.175 299.049 236.175 298.113C236.175 297.177 236.89 296.475 237.813 296.475C238.749 296.475 239.464 297.177 239.464 298.113C239.464 299.049 238.749 299.738 237.813 299.738ZM242.995 315C242.384 315 242.046 314.662 242.046 314.051V297.749C242.046 297.138 242.384 296.8 242.995 296.8H243.918C244.529 296.8 244.867 297.138 244.867 297.749V314.051C244.867 314.662 244.529 315 243.918 315H242.995ZM248.631 315C248.02 315 247.682 314.662 247.682 314.051V297.749C247.682 297.138 248.02 296.8 248.631 296.8H249.554C250.165 296.8 250.503 297.138 250.503 297.749V308.162L256.21 302.208C256.561 301.844 256.886 301.701 257.367 301.701H258.472C259.252 301.701 259.499 302.299 258.927 302.91L254.845 307.2L259.382 313.856C259.772 314.441 259.486 315 258.758 315H257.575C257.055 315 256.704 314.818 256.418 314.376L252.869 309.176L250.503 311.62V314.051C250.503 314.662 250.165 315 249.554 315H248.631ZM273.828 315.156C269.785 315.156 267.042 312.413 267.042 308.344C267.042 304.275 269.785 301.545 273.828 301.545C277.871 301.545 280.614 304.275 280.614 308.344C280.614 312.413 277.871 315.156 273.828 315.156ZM273.828 312.764C276.194 312.764 277.741 310.931 277.741 308.344C277.741 305.77 276.194 303.924 273.828 303.924C271.462 303.924 269.915 305.77 269.915 308.344C269.915 310.931 271.462 312.764 273.828 312.764ZM287.983 315.156C285.123 315.156 282.718 313.557 282.718 309.098V302.65C282.718 302.026 283.056 301.701 283.667 301.701H284.59C285.201 301.701 285.539 302.026 285.539 302.65V308.89C285.539 311.425 286.644 312.738 288.62 312.738C290.908 312.738 292.052 311.269 292.052 308.708V302.65C292.052 302.026 292.39 301.701 293.001 301.701H293.924C294.535 301.701 294.873 302.026 294.873 302.65V314.051C294.873 314.662 294.535 315 293.924 315H293.287C292.702 315 292.364 314.714 292.26 314.142L292.117 313.258C291.324 314.285 290.089 315.156 287.983 315.156ZM302.355 315C299.807 315 298.741 313.817 298.741 311.373V304.158H297.376C296.765 304.158 296.427 303.82 296.427 303.209V302.65C296.427 302.026 296.765 301.701 297.376 301.701H298.741V298.906C298.741 298.295 299.066 297.957 299.69 297.957H300.6C301.211 297.957 301.549 298.295 301.549 298.906V301.701H304.019C304.643 301.701 304.968 302.026 304.968 302.65V303.209C304.968 303.82 304.643 304.158 304.019 304.158H301.549V311.1C301.549 312.14 301.939 312.543 302.992 312.543H304.019C304.643 312.543 304.968 312.868 304.968 313.492V314.051C304.968 314.662 304.643 315 304.019 315H302.355ZM307.918 320.2C307.307 320.2 306.969 319.862 306.969 319.251V302.65C306.969 302.026 307.307 301.701 307.918 301.701H308.555C309.127 301.701 309.478 301.987 309.569 302.559L309.738 303.703C310.622 302.507 312 301.545 314.106 301.545C317.746 301.545 320.398 304.08 320.398 308.357C320.398 312.452 317.733 315.156 314.119 315.156C312.039 315.156 310.609 314.311 309.79 313.115V319.251C309.79 319.862 309.452 320.2 308.841 320.2H307.918ZM313.638 312.764C315.978 312.764 317.525 310.983 317.525 308.344C317.525 305.705 315.978 303.924 313.638 303.924C311.311 303.924 309.751 305.705 309.751 308.305C309.751 310.97 311.311 312.764 313.638 312.764ZM327.77 315.156C324.91 315.156 322.505 313.557 322.505 309.098V302.65C322.505 302.026 322.843 301.701 323.454 301.701H324.377C324.988 301.701 325.326 302.026 325.326 302.65V308.89C325.326 311.425 326.431 312.738 328.407 312.738C330.695 312.738 331.839 311.269 331.839 308.708V302.65C331.839 302.026 332.177 301.701 332.788 301.701H333.711C334.322 301.701 334.66 302.026 334.66 302.65V314.051C334.66 314.662 334.322 315 333.711 315H333.074C332.489 315 332.151 314.714 332.047 314.142L331.904 313.258C331.111 314.285 329.876 315.156 327.77 315.156ZM342.142 315C339.594 315 338.528 313.817 338.528 311.373V304.158H337.163C336.552 304.158 336.214 303.82 336.214 303.209V302.65C336.214 302.026 336.552 301.701 337.163 301.701H338.528V298.906C338.528 298.295 338.853 297.957 339.477 297.957H340.387C340.998 297.957 341.336 298.295 341.336 298.906V301.701H343.806C344.43 301.701 344.755 302.026 344.755 302.65V303.209C344.755 303.82 344.43 304.158 343.806 304.158H341.336V311.1C341.336 312.14 341.726 312.543 342.779 312.543H343.806C344.43 312.543 344.755 312.868 344.755 313.492V314.051C344.755 314.662 344.43 315 343.806 315H342.142ZM348.365 315.156C347.338 315.156 346.571 314.428 346.571 313.388C346.571 312.335 347.338 311.62 348.365 311.62C349.405 311.62 350.172 312.335 350.172 313.388C350.172 314.428 349.405 315.156 348.365 315.156Z" fill="#999999"/>
</svg>
